<?xml version="1.0" standalone="no"?>
<!DOCTYPE svg PUBLIC "-//W3C//DTD SVG 20010904//EN"
 "http://www.w3.org/TR/2001/REC-SVG-20010904/DTD/svg10.dtd">
<svg version="1.0" xmlns="http://www.w3.org/2000/svg"
 width="665.000000pt" height="375.000000pt" viewBox="0 0 665.000000 375.000000"
 preserveAspectRatio="xMidYMid meet">

<g transform="translate(0.000000,375.000000) scale(0.100000,-0.100000)"
fill="#000000" stroke="none">
<path d="M4675 2391 c-15 -25 -116 -80 -195 -106 -105 -34 -156 -59 -164 -80
-3 -9 -10 -14 -15 -10 -5 3 -13 -5 -17 -17 -6 -20 -8 -21 -13 -6 -6 17 -8 16
-38 -2 -18 -11 -46 -38 -62 -60 l-30 -41 -3 28 c-4 28 -4 28 -21 -11 -9 -21
-17 -46 -17 -55 0 -9 -14 -43 -30 -75 -55 -107 -30 -237 55 -295 38 -26 123
-52 165 -50 15 1 7 5 -20 10 -95 19 -130 73 -138 214 -4 82 -2 99 17 139 34
69 72 96 135 96 69 0 98 -28 126 -117 34 -110 19 -227 -36 -293 -30 -35 -26
-37 24 -11 48 25 76 55 101 111 53 117 4 243 -119 300 -51 24 -57 40 -14 40
14 0 23 4 20 9 -3 5 10 12 29 15 40 8 45 23 13 36 -21 8 -20 9 10 9 21 1 31 5
26 12 -3 6 1 10 12 9 43 -5 58 3 114 56 52 49 109 138 97 151 -3 2 -8 -1 -12
-6z m-65 -85 c0 -7 -152 -94 -200 -114 -86 -37 -225 -138 -259 -188 -17 -26
-31 -53 -31 -61 0 -26 -33 -93 -45 -93 -39 0 -22 68 38 151 49 66 129 120 342
230 172 89 155 80 155 75z"/>
<path d="M1670 2313 c-45 -16 -52 -72 -13 -103 46 -36 103 -8 103 51 0 42 -45
68 -90 52z"/>
<path d="M5050 2290 c0 -5 8 -10 19 -10 11 0 21 -9 25 -22 8 -33 7 -591 -2
-604 -4 -6 -16 -16 -27 -22 -16 -9 2 -11 85 -11 83 0 100 3 82 11 -30 15 -33
34 -30 158 l3 105 89 -137 89 -138 74 0 c47 0 72 4 68 10 -3 6 -11 10 -16 10
-14 0 -50 44 -110 133 -27 39 -65 92 -84 117 -19 25 -35 48 -35 51 0 4 31 32
69 63 55 44 77 56 105 56 19 0 38 5 41 10 4 6 -28 10 -90 10 -62 0 -94 -4 -90
-10 3 -5 13 -10 21 -10 8 0 14 -6 14 -12 0 -14 -127 -138 -141 -138 -5 0 -9
88 -9 195 l0 195 -75 0 c-43 0 -75 -4 -75 -10z"/>
<path d="M1157 2283 c12 -2 27 -10 33 -18 7 -9 11 -105 11 -296 0 -156 0 -292
0 -301 -1 -10 -13 -24 -28 -32 -26 -14 -20 -15 92 -15 92 0 115 2 100 11 -41
22 -45 37 -45 180 l0 138 46 0 c37 0 51 -5 75 -29 16 -16 29 -37 29 -45 0 -9
5 -16 10 -16 6 0 10 38 10 95 0 57 -4 95 -10 95 -5 0 -10 -9 -10 -20 0 -38
-35 -60 -95 -60 l-56 0 3 153 3 152 66 -1 c109 -1 138 -22 154 -108 12 -62 25
-39 25 44 l0 80 -217 -1 c-120 -1 -208 -4 -196 -6z"/>
<path d="M3485 2283 c16 -3 33 -10 37 -16 4 -7 8 -146 8 -309 0 -256 -2 -299
-16 -312 -14 -15 -6 -16 83 -16 86 0 95 2 73 13 -25 13 -25 13 -28 180 l-2
167 46 0 c126 0 194 -66 194 -189 0 -84 -35 -140 -100 -160 -32 -10 -31 -11
22 -7 128 10 201 101 176 219 -13 62 -57 104 -131 124 l-60 17 39 17 c22 9 54
33 72 53 26 30 32 45 32 83 0 39 -5 50 -38 83 -52 52 -91 60 -277 58 -88 0
-147 -3 -130 -5z m294 -17 c37 -19 51 -55 51 -127 0 -104 -32 -138 -127 -139
-35 0 -63 4 -63 10 -1 6 -1 66 -1 135 0 69 0 127 1 130 0 11 113 4 139 -9z"/>
<path d="M2110 2079 c-14 -5 -40 -26 -57 -47 l-33 -37 0 44 0 44 -37 -7 c-21
-3 -58 -6 -83 -6 -43 0 -44 -1 -20 -13 l25 -13 3 -194 c3 -189 2 -196 -19
-212 -20 -17 -18 -18 87 -18 104 1 107 1 76 15 l-33 15 3 147 c3 131 6 153 27
196 19 39 61 77 84 77 3 0 2 -20 -1 -45 -4 -41 -3 -45 23 -55 36 -14 76 6 90
44 8 25 6 31 -18 52 -30 25 -72 30 -117 13z"/>
<path d="M2530 2079 c-14 -6 -37 -22 -52 -36 l-28 -27 0 32 c0 30 -2 32 -32
31 -45 -1 -138 -16 -112 -18 12 0 25 -8 28 -17 3 -9 6 -101 6 -204 0 -184 -1
-189 -22 -204 -21 -15 -15 -16 82 -15 80 0 100 3 84 11 -27 12 -34 52 -33 173
1 184 24 247 92 253 54 5 58 -10 55 -225 l-3 -187 -25 -13 c-22 -11 -10 -13
85 -13 95 0 107 2 85 13 -25 13 -25 13 -28 177 -3 174 3 209 42 235 29 21 73
19 86 -4 6 -12 10 -96 10 -205 0 -180 -1 -185 -22 -200 -21 -15 -15 -16 82
-16 83 1 101 3 85 12 -11 6 -22 13 -25 15 -3 3 -7 89 -10 193 -5 181 -6 189
-29 214 -45 48 -147 43 -202 -10 l-27 -26 -12 22 c-22 41 -104 61 -160 39z"/>
<path d="M3155 2075 c-41 -15 -95 -65 -95 -89 0 -21 40 -66 59 -66 22 0 61 41
61 64 0 9 -13 25 -30 34 -16 9 -30 20 -30 23 0 21 101 38 126 21 30 -20 44
-59 44 -119 l0 -62 -38 -10 c-21 -6 -54 -14 -73 -17 -46 -9 -79 -27 -112 -59
-37 -37 -39 -111 -4 -143 54 -50 136 -46 193 9 30 29 34 31 34 13 0 -54 91
-74 135 -29 14 13 25 32 25 42 0 15 -3 14 -16 -5 -13 -18 -19 -21 -30 -11 -11
9 -14 46 -14 169 0 133 -3 163 -17 189 -32 56 -131 77 -218 46z m135 -289 c0
-71 -1 -76 -30 -96 -43 -30 -90 -24 -109 14 -12 26 -12 36 0 70 11 32 23 46
59 64 74 37 80 34 80 -52z"/>
<path d="M1646 2073 c-38 -4 -39 -5 -15 -17 l24 -12 0 -199 0 -199 -25 -13
c-22 -11 -11 -13 80 -12 83 0 100 3 83 11 -23 11 -23 13 -23 230 l0 218 -42
-2 c-24 -1 -61 -3 -82 -5z"/>
<path d="M4712 2067 c-18 -5 -53 -28 -77 -49 -106 -93 -94 -280 22 -357 46
-31 139 -58 164 -48 8 3 0 6 -17 6 -43 1 -95 39 -119 86 -16 33 -20 60 -20
150 0 129 18 178 76 207 37 20 23 22 -29 5z"/>
<path d="M4850 2073 c29 -11 53 -38 76 -88 51 -108 21 -308 -53 -350 -26 -15
-27 -15 -3 -10 62 16 114 60 147 124 35 67 40 109 21 172 -22 76 -120 160
-183 158 -14 0 -16 -2 -5 -6z"/>
<path d="M1940 1396 l0 -66 39 0 c48 0 69 21 53 53 -6 12 -12 33 -14 47 -3 21
-9 25 -40 28 l-38 3 0 -65z m60 29 c0 -8 -9 -15 -20 -15 -11 0 -20 7 -20 15 0
8 9 15 20 15 11 0 20 -7 20 -15z m8 -62 c-2 -10 -12 -18 -23 -18 -11 0 -21 8
-23 18 -3 13 3 17 23 17 20 0 26 -4 23 -17z"/>
<path d="M2107 1442 c-35 -38 -20 -96 28 -112 70 -23 129 44 87 99 -25 34 -90
41 -115 13z m96 -23 c15 -24 1 -66 -25 -72 -48 -13 -89 48 -56 81 17 17 68 11
81 -9z"/>
<path d="M2316 1444 c-38 -37 -27 -96 20 -114 73 -28 137 57 84 110 -24 24
-82 27 -104 4z m94 -24 c14 -26 5 -57 -21 -71 -43 -23 -87 18 -69 65 8 21 16
26 44 26 25 0 38 -6 46 -20z"/>
<path d="M2500 1395 c0 -66 12 -86 24 -40 4 14 10 25 14 25 5 0 19 -11 32 -25
13 -14 30 -25 39 -25 10 0 4 11 -18 34 l-32 33 26 32 c33 38 11 44 -25 6 -25
-27 -40 -25 -40 6 0 10 -4 19 -10 19 -6 0 -10 -28 -10 -65z"/>
<path d="M2761 1446 c-16 -19 -4 -44 31 -62 37 -19 31 -40 -11 -36 -38 3 -40
-5 -5 -18 32 -12 64 3 64 30 0 11 -13 29 -30 42 -38 28 -38 38 1 38 17 0 28 4
24 10 -9 15 -61 12 -74 -4z"/>
<path d="M2900 1395 c0 -37 4 -65 10 -65 6 0 10 28 10 65 0 37 -4 65 -10 65
-6 0 -10 -28 -10 -65z"/>
<path d="M3006 1438 c-39 -55 5 -126 69 -114 37 8 60 29 52 50 -7 17 -57 22
-57 6 0 -5 7 -10 16 -10 22 0 12 -24 -13 -28 -11 -2 -30 6 -44 16 -20 17 -22
24 -14 48 9 26 16 29 58 32 59 4 52 22 -8 22 -34 0 -47 -5 -59 -22z"/>
<path d="M3190 1395 c0 -37 4 -65 10 -65 6 0 10 18 10 40 0 22 2 40 3 40 2 0
23 -18 47 -40 43 -40 61 -44 55 -12 -2 9 -4 36 -4 60 -1 53 -21 56 -21 2 0
-46 -12 -51 -35 -16 -9 14 -27 32 -41 41 l-24 15 0 -65z"/>
<path d="M3380 1394 c0 -48 3 -65 13 -62 16 6 20 32 12 84 -10 66 -25 53 -25
-22z"/>
<path d="M3472 1393 c3 -76 20 -91 28 -25 l5 43 40 -40 c21 -23 43 -41 47 -41
4 0 8 30 8 66 0 48 -3 65 -12 62 -7 -3 -15 -21 -18 -42 l-5 -37 -40 40 c-21
23 -43 41 -47 41 -5 0 -8 -30 -6 -67z"/>
<path d="M3675 1444 c-11 -11 -15 -30 -13 -58 2 -34 8 -43 32 -55 42 -20 90
-4 94 32 3 23 0 27 -22 27 -14 0 -26 -4 -26 -10 0 -5 8 -10 17 -10 16 0 16 -1
1 -16 -14 -15 -21 -15 -47 -4 -24 9 -31 19 -31 39 0 37 17 51 63 51 23 0 36 4
32 10 -10 16 -82 12 -100 -6z"/>
<path d="M3920 1395 l0 -65 43 1 c40 1 41 1 15 11 -33 11 -37 35 -8 40 29 4
30 22 3 26 -32 5 -30 32 2 32 14 0 25 5 25 10 0 6 -18 10 -40 10 l-40 0 0 -65z"/>
<path d="M4050 1457 c0 -14 50 -122 57 -124 12 -4 66 117 57 126 -7 8 -33 -28
-41 -56 -8 -33 -18 -28 -36 17 -8 22 -20 40 -26 40 -6 0 -11 -1 -11 -3z"/>
<path d="M4220 1395 c0 -72 6 -80 55 -67 l30 8 -32 7 c-40 8 -46 37 -8 37 31
0 33 17 3 22 -13 2 -24 11 -26 21 -3 13 3 17 27 17 17 0 31 5 31 10 0 6 -18
10 -40 10 l-40 0 0 -65z"/>
<path d="M4360 1395 c0 -51 3 -65 15 -65 11 0 15 11 15 42 l0 42 43 -42 c23
-23 46 -42 50 -42 4 0 7 29 7 65 0 37 -4 65 -10 65 -5 0 -10 -18 -10 -40 0
-22 -2 -40 -5 -40 -3 0 -25 18 -47 40 -23 22 -46 40 -50 40 -4 0 -8 -29 -8
-65z"/>
<path d="M4550 1450 c0 -5 6 -10 14 -10 9 0 16 -19 20 -60 9 -74 26 -70 26 6
0 47 2 54 20 54 11 0 20 5 20 10 0 6 -22 10 -50 10 -27 0 -50 -4 -50 -10z"/>
<path d="M1140 1420 c0 -6 118 -10 335 -10 217 0 335 4 335 10 0 6 -118 10
-335 10 -217 0 -335 -4 -335 -10z"/>
<path d="M4840 1420 c0 -6 118 -10 335 -10 217 0 335 4 335 10 0 6 -118 10
-335 10 -217 0 -335 -4 -335 -10z"/>
</g>
</svg>
